#!OML:ASF E:\acrobat2\Project_11_07_03\Capture day 1\Session 1\Acrobat.ASF
:FULLY-SPECIFIED
:DEGREES
21
root 10.2576 16.6476 32.2814 -179.669 -1.01955 180.441
lowerback -6.89674 0.164384 -0.692859
upperback -2.93205 0.077231 -0.524011
thorax 0.843558 -0.0418863 -0.144993
lowerneck 1.98042 -1.79571 -1.24476
upperneck 3.05517 -2.58646 3.17415
head 0.668451 -1.33268 1.18065
rclavicle -2.43511e-015 4.17448e-015
rhumerus -46.1696 16.6675 -94.6592
rradius 27.8109
rwrist 4.71098
rhand -4.51575 -40.3354
rfingers 7.12502
rthumb 21.2586 -69.1895
lclavicle -2.43511e-015 4.17448e-015
lhumerus -39.7509 -21.8126 96.3783
lradius 21.3348
lwrist 9.09832
lhand -4.41689 -13.8201
lfingers 7.12502
lthumb 21.3536 15.0234
rfemur 15.7186 29.1202 0.186636
rtibia -6.56869
rfoot -48.4409 -28.923
rtoes 22.3343
lfemur 13.6135 -24.0702 3.31874
ltibia -7.68409
lfoot -45.6472 -9.14475
ltoes 56.7935
22
root 10.2581 16.6473 32.2839 -179.673 -1.02603 180.467
lowerback -6.85664 0.16609 -0.66677
upperback -2.93533 0.0779467 -0.517347
thorax 0.818049 -0.0413384 -0.152717
lowerneck 1.99013 -1.77922 -1.27607
upperneck 3.05206 -2.5667 3.22508
head 0.666696 -1.32327 1.20216
rclavicle 0 -1.21259e-014
rhumerus -46.1343 16.6607 -94.6751
rradius 27.7538
rwrist 4.72865
rhand -4.62363 -40.2451
rfingers 7.12502
rthumb 21.155 -69.1109
lclavicle 0 -1.21259e-014
lhumerus -39.766 -21.8602 96.4097
lradius 21.3507
lwrist 9.12167
lhand -4.45858 -13.8048
lfingers 7.12502
lthumb 21.3135 15.0432
rfemur 15.7148 29.1362 0.22613
rtibia -6.55581
rfoot -48.4757 -28.9195
rtoes 22.4357
lfemur 13.6041 -24.0506 3.37066
ltibia -7.70521
lfoot -45.5624 -9.29212
ltoes 56.9048
23
root 10.2586 16.6469 32.2863 -179.674 -1.04139 180.479
lowerback -6.82354 0.166446 -0.653258
upperback -2.93762 0.0776949 -0.514958
thorax 0.797388 -0.0412778 -0.157849
lowerneck 1.99964 -1.76491 -1.30111
upperneck 3.0538 -2.54979 3.26792
head 0.666302 -1.31526 1.22005
rclavicle -1.2921e-015 5.56597e-015
rhumerus -46.0882 16.6476 -94.6826
rradius 27.693
rwrist 4.78736
rhand -4.65913 -40.2199
rfingers 7.12502
rthumb 21.1209 -69.0895
lclavicle -1.2921e-015 5.56597e-015
lhumerus -39.7882 -21.9313 96.4504
lradius 21.3783
lwrist 9.15996
lhand -4.49283 -13.7784
lfingers 7.12502
lthumb 21.2806 15.0733
rfemur 15.7177 29.1528 0.254082
rtibia -6.5463
rfoot -48.5043 -28.9332
rtoes 22.4817
lfemur 13.5852 -24.0264 3.41082
ltibia -7.71688
lfoot -45.4906 -9.32844
ltoes 56.9923
24
root 10.259 16.6464 32.2884 -179.672 -1.06161 180.479
lowerback -6.80082 0.165353 -0.65191
upperback -2.93952 0.0762074 -0.515581
thorax 0.78286 -0.0418756 -0.159347
lowerneck 2.0055 -1.75203 -1.31823
upperneck 3.06076 -2.53437 3.29653
head 0.667804 -1.30789 1.23205
rclavicle -3.97569e-016 4.37326e-015
rhumerus -46.0391 16.6363 -94.6799
rradius 27.6305
rwrist 4.84092
rhand -4.65035 -40.1928
rfingers 7.12502
rthumb 21.1293 -69.0614
lclavicle -3.97569e-016 4.37326e-015
lhumerus -39.8125 -22.006 96.4915
lradius 21.4121
lwrist 9.19938
lhand -4.52541 -13.7501
lfingers 7.12502
lthumb 21.2493 15.1051
rfemur 15.7184 29.1622 0.262522
rtibia -6.53836
rfoot -48.5148 -28.9569
rtoes 22.4624
lfemur 13.5552 -23.9888 3.44157
ltibia -7.7201
lfoot -45.4144 -9.3013
ltoes 57.0641
25
root 10.2591 16.646 32.2902 -179.667 -1.07995 180.469
lowerback -6.78509 0.164565 -0.658037
upperback -2.94071 0.0755777 -0.519027
thorax 0.772905 -0.0420723 -0.159488
lowerneck 2.00351 -1.73743 -1.34007
upperneck 3.07876 -2.5173 3.32863
head 0.674109 -1.29967 1.24587
rclavicle 8.94531e-016 -1.43125e-014
rhumerus -46.002 16.6407 -94.6859
rradius 27.5778
rwrist 4.88015
rhand -4.64677 -40.1929
rfingers 7.12502
rthumb 21.1328 -69.0611
lclavicle 8.94531e-016 -1.43125e-014
lhumerus -39.8367 -22.0826 96.5297
lradius 21.4476
lwrist 9.24515
lhand -4.55132 -13.7257
lfingers 7.12502
lthumb 21.2245 15.1323
rfemur 15.7111 29.157 0.249055
rtibia -6.52908
rfoot -48.5087 -28.9617
rtoes 22.4441
lfemur 13.5239 -23.9523 3.45795
ltibia -7.71827
lfoot -45.3494 -9.25862
ltoes 57.1129
26
root 10.2592 16.6458 32.2918 -179.666 -1.09512 180.452
lowerback -6.76827 0.163253 -0.670617
upperback -2.94144 0.0746701 -0.522913
thorax 0.762798 -0.0423516 -0.156481
lowerneck 2.00007 -1.71947 -1.3738
upperneck 3.10212 -2.49656 3.37219
head 0.682568 -1.28973 1.26534
rclavicle -3.03147e-015 1.17283e-014
rhumerus -45.9643 16.6352 -94.676
rradius 27.5211
rwrist 4.91124
rhand -4.61484 -40.1842
rfingers 7.12502
rthumb 21.1634 -69.0491
lclavicle -3.03147e-015 1.17283e-014
lhumerus -39.8561 -22.1445 96.559
lradius 21.476
lwrist 9.29633
lhand -4.56374 -13.7145
lfingers 7.12502
lthumb 21.2125 15.1449
rfemur 15.6979 29.1346 0.219696
rtibia -6.51606
rfoot -48.4912 -28.9381
rtoes 22.4568
lfemur 13.503 -23.9449 3.45284
ltibia -7.71571
lfoot -45.3184 -9.24388
ltoes 57.1611
27
root 10.2592 16.6459 32.2933 -179.671 -1.10892 180.439
lowerback -6.74387 0.160842 -0.677659
upperback -2.94294 0.0719476 -0.52589
thorax 0.747719 -0.0435195 -0.155775
lowerneck 2.00748 -1.69986 -1.40672
upperneck 3.1164 -2.47315 3.41147
head 0.686245 -1.27857 1.28347
rclavicle -1.2424e-015 1.98785e-015
rhumerus -45.9483 16.6467 -94.6806
rradius 27.484
rwrist 4.94035
rhand -4.59369 -40.2408
rfingers 7.12502
rthumb 21.1838 -69.1034
lclavicle -1.2424e-015 1.98785e-015
lhumerus -39.8658 -22.1626 96.5651
lradius 21.4908
lwrist 9.32931
lhand -4.56449 -13.7305
lfingers 7.12502
lthumb 21.2118 15.1289
rfemur 15.6887 29.1032 0.193766
rtibia -6.50355
rfoot -48.4742 -28.8948
rtoes 22.502
lfemur 13.4958 -23.9645 3.43785
ltibia -7.71604
lfoot -45.3079 -9.27532
ltoes 57.2258
28
root 10.2592 16.6461 32.2947 -179.681 -1.12006 180.44
lowerback -6.71403 0.159004 -0.66465
upperback -2.94459 0.0688338 -0.527532
thorax 0.72954 -0.0449501 -0.164972
lowerneck 2.03291 -1.68076 -1.43031
upperneck 3.10926 -2.44908 3.43903
head 0.679927 -1.26715 1.29652
rclavicle -2.78299e-015 1.37161e-014
rhumerus -45.9313 16.633 -94.6647
rradius 27.4528
rwrist 4.95911
rhand -4.5565 -40.2494
rfingers 7.12502
rthumb 21.2195 -69.108
lclavicle -2.78299e-015 1.37161e-014
lhumerus -39.8667 -22.1488 96.5513
lradius 21.495
lwrist 9.34329
lhand -4.56217 -13.7716
lfingers 7.12502
lthumb 21.214 15.0876
rfemur 15.6885 29.0818 0.19244
rtibia -6.4969
rfoot -48.4793 -28.8428
rtoes 22.5839
lfemur 13.4951 -23.984 3.43655
ltibia -7.71612
lfoot -45.306 -9.27433
ltoes 57.2525
29
root 10.2594 16.6461 32.2961 -179.686 -1.12607 180.466
lowerback -6.68751 0.159277 -0.625747
upperback -2.94765 0.0668702 -0.523836
thorax 0.711814 -0.0459934 -0.183132
lowerneck 2.07413 -1.66261 -1.4466
upperneck 3.08202 -2.42514 3.45987
head 0.664534 -1.25586 1.30638
rclavicle 6.95746e-016 -1.98785e-016
rhumerus -45.9166 16.6146 -94.6528
rradius 27.4274
rwrist 4.98665
rhand -4.55215 -40.2502
rfingers 7.12502
rthumb 21.2237 -69.1083
lclavicle 6.95746e-016 -1.98785e-016
lhumerus -39.8567 -22.1123 96.5218
lradius 21.4911
lwrist 9.36144
lhand -4.52706 -13.8205
lfingers 7.12502
lthumb 21.2478 15.0348
rfemur 15.6914 29.0875 0.230953
rtibia -6.49613
rfoot -48.5171 -28.7963
rtoes 22.6761
lfemur 13.4868 -23.9782 3.47581
ltibia -7.71186
lfoot -45.3093 -9.17595
ltoes 57.1906
30
root 10.2598 16.646 32.2974 -179.684 -1.12686 180.512
lowerback -6.66826 0.163408 -0.567485
upperback -2.95342 0.0686304 -0.516711
thorax 0.695366 -0.0454278 -0.208367
lowerneck 2.12272 -1.64944 -1.44884
upperneck 3.04474 -2.4069 3.46855
head 0.644568 -1.24738 1.31005
rclavicle 1.93815e-015 -5.56597e-015
rhumerus -45.9021 16.5845 -94.6421
rradius 27.4022
rwrist 5.02636
rhand -4.5762 -40.2281
rfingers 7.12502
rthumb 21.2006 -69.0888
lclavicle 1.93815e-015 -5.56597e-015
lhumerus -39.8244 -22.0385 96.4578
lradius 21.4801
lwrist 9.42182
lhand -4.37416 -13.8584
lfingers 7.12502
lthumb 21.3946 14.9804
rfemur 15.6945 29.123 0.303133
rtibia -6.49863
rfoot -48.5812 -28.7675
rtoes 22.7602
lfemur 13.4683 -23.9458 3.55244
ltibia -7.70427
lfoot -45.3141 -9.02524
ltoes 57.0572
31
root 10.2603 16.6459 32.2984 -179.678 -1.1259 180.554
lowerback -6.65649 0.17131 -0.513052
upperback -2.96021 0.0755008 -0.514088
thorax 0.682016 -0.0424432 -0.235721
lowerneck 2.1679 -1.64509 -1.43316
upperneck 3.00796 -2.39966 3.46136
head 0.625134 -1.24419 1.30558
rclavicle 4.96962e-016 3.57812e-015
rhumerus -45.8912 16.5473 -94.6423
rradius 27.3784
rwrist 5.07706
rhand -4.63606 -40.2204
rfingers 7.12502
rthumb 21.1431 -69.0875
lclavicle 4.96962e-016 3.57812e-015
lhumerus -39.7937 -21.9769 96.3941
lradius 21.4644
lwrist 9.48536
lhand -4.20888 -13.8963
lfingers 7.12502
lthumb 21.5534 14.9244
rfemur 15.6995 29.179 0.378529
rtibia -6.50204
rfoot -48.6598 -28.7642
rtoes 22.8375
lfemur 13.4454 -23.9083 3.62859
ltibia -7.69575
lfoot -45.3259 -8.90205
ltoes 56.9054
